<svg xmlns="http://www.w3.org/2000/svg" viewBox="0 0 640 640" class="w-32 h-32">
  <defs>
    <linearGradient id="grad1" x1="0%" y1="0%" x2="100%" y2="100%">
      <stop offset="0%" stop-color="#10B981"/> <!-- Tailwind emerald-500 -->
      <stop offset="100%" stop-color="#0D9488"/> <!-- Tailwind teal-600 -->
    </linearGradient>
  </defs>
  
  <path fill="url(#grad1)" d="M576 96C576 204.1 499.4 294.3 397.6 315.4C389.7 257.3 363.6 205 325.1 164.5C365.2 104 433.9 64 512 64L544 64C561.7 64 576 78.3 576 96zM64 160C64 142.3 78.3 128 96 128L128 128C251.7 128 352 228.3 352 352L352 544C352 561.7 337.7 576 320 576C302.3 576 288 561.7 288 544L288 384C164.3 384 64 283.7 64 160z"/>
</svg>
